<svg xmlns="http://www.w3.org/2000/svg" viewBox="0 0 500 500" width="500" height="500" class="illustration"><title>37. 24 Hours</title><g id="Layer_9" data-name="Layer 9"><path d="M255.62,111.38s135.15,16.89,128.39,152S275.89,385.06,275.89,385.06s179.74-4,131.77-175.7C375.57,94.49,255.62,111.38,255.62,111.38Z" fill="#3fe2fd"></path></g><g id="Layer_3" data-name="Layer 3"><polygon points="214.07 358.72 214.07 328.71 202.54 317.18 173.79 358.72 214.07 358.72" fill="none"></polygon><path d="M276.15,101.6c-81.66,0-148.1,66.43-148.1,148.09a7,7,0,1,0,14,0c0-73.94,60.16-134.09,134.1-134.09s134.09,60.15,134.09,134.09S350.08,383.78,276.15,383.78a7,7,0,0,0,0,14c81.65,0,148.09-66.43,148.09-148.09S357.8,101.6,276.15,101.6Z" fill="#251ac7"></path><path d="M364.83,249.69a7,7,0,0,0-7-7H280.67V153.15a7,7,0,0,0-14,0v96.54a7,7,0,0,0,7,7h84.16A7,7,0,0,0,364.83,249.69Z" fill="#251ac7"></path><path d="M152.38,383.78H100.77a185.41,185.41,0,0,1,24.39-18.22q4.34-2.74,9-5.39a39,39,0,1,0-58.36-33.9,7,7,0,0,0,14,0,25,25,0,0,1,26.64-25,25.29,25.29,0,0,1,23.36,23.36A24.94,24.94,0,0,1,127.18,348q-6.6,3.76-12.62,7.71a186.23,186.23,0,0,0-32.85,27l-3.07,3.21a7,7,0,0,0,5,11.84h68.69a7,7,0,0,0,0-14Z" fill="#251ac7"></path><path d="M221.07,307.05a7,7,0,0,0-7,7v44.67H173.79l28.75-41.54,13.77-19.88a7,7,0,0,0-11.51-8l-12.32,17.79-37.81,54.62a7,7,0,0,0,5.76,11h53.64V391.4a7,7,0,0,0,14,0V372.72h9.71a7,7,0,0,0,0-14h-9.71V314.05A7,7,0,0,0,221.07,307.05Z" fill="#251ac7"></path></g></svg>