<svg xmlns="http://www.w3.org/2000/svg" viewBox="0 0 500 500" width="500" height="500" class="illustration"><title>Level Up</title><g id="Layer_1" data-name="Layer 1"><rect x="313.78" y="166.57" width="52.93" height="217.36" fill="#3fe2fd"></rect></g><g id="Layer_11" data-name="Layer 11"><rect x="227.3" y="234.89" width="35.55" height="146.54" fill="none"></rect><rect x="138.33" y="303.08" width="35.55" height="78.35" fill="none"></rect><rect x="325.29" y="170.81" width="35.55" height="210.62" fill="none"></rect><path d="M87.16,390.69a7,7,0,0,0,7,7H398.25a7,7,0,0,0,0-14H374.84V163.81a7,7,0,0,0-7-7H318.29a7,7,0,0,0-7,7V383.69H276.86V227.89a7,7,0,0,0-7-7H220.3a7,7,0,0,0-7,7v155.8H187.89V296.08a7,7,0,0,0-7-7H131.33a7,7,0,0,0-7,7v87.61H94.16A7,7,0,0,0,87.16,390.69ZM325.29,170.81h35.55V381.44H325.29Zm-98,64.08h35.56V381.44H227.3Zm-89,68.19h35.56v78.36H138.33Z" fill="#251ac7"></path><path d="M357.4,80.82a71.87,71.87,0,0,1-15.46,17.75,70.57,70.57,0,0,1-5.51-7.23,7,7,0,0,0-11.78,7.57,86.07,86.07,0,0,0,5.65,7.55,81.51,81.51,0,0,1-17.12,7c-.89.25-1.78.49-2.69.72a7,7,0,0,0,1.69,13.8,6.67,6.67,0,0,0,1.7-.22,95.18,95.18,0,0,0,26.47-10.89c6.6,5.7,13.24,9.35,19.82,10.84a6.9,6.9,0,0,0,1.55.18A7,7,0,0,0,363.27,114a30.31,30.31,0,0,1-11.19-5.71c17.06-14.69,22.85-31.2,23.2-32.25a7,7,0,0,0-6.63-9.24H349.49V57.2a7,7,0,1,0-14,0v9.62H318.42a7,7,0,1,0,0,14Z" fill="#251ac7"></path><path d="M150.6,234.38a7,7,0,0,0,7-7V186l8.29,11.64a7,7,0,0,0,11.41-8.11l-20.84-29.29a7,7,0,0,0-5.68-2.94h0a7,7,0,0,0-5.68,2.91l-20.27,28.16a7,7,0,0,0,11.36,8.18l7.43-10.33v41.15A7,7,0,0,0,150.6,234.38Z" fill="#251ac7"></path></g></svg>