<svg xmlns="http://www.w3.org/2000/svg" viewBox="0 0 500 500" width="500" height="500" class="illustration"><g id="Layer_10" data-name="Layer 10"><path d="M319.21,345.12l-46,64.59-23.83-3.4-41.06-61c-65.22,8-111.94,29.58-111.94,54.92,0,32.18,75.3,58.27,168.19,58.27S432.7,432.41,432.7,400.23C432.7,374.69,385.24,353,319.21,345.12Z" fill="#3fe2fd"></path><path d="M159.12,119.92s-19.74,68,20.43,129.19,106.55,146,106.55,146l-17.61,14s-27.36-4.82-28-6.33-53.09-88-53.09-88l-49.71-87.49S131.21,137.54,159.12,119.92Z" fill="#3fe2fd"></path><circle cx="252.89" cy="186.88" r="57.04" fill="#3fe2fd"></circle></g><g id="Layer_3" data-name="Layer 3"><path d="M263.12,204.18a6.89,6.89,0,0,1-6.89-6.9v-5.17a15.88,15.88,0,0,1,15.86-15.86,2.08,2.08,0,0,0,2.08-2.08V165a7.79,7.79,0,0,0-7.78-7.78H262a7.79,7.79,0,0,0-7.78,7.78v4.44a6.89,6.89,0,1,1-13.78,0V165A21.59,21.59,0,0,1,262,143.44h4.36A21.6,21.6,0,0,1,288,165v9.16A15.89,15.89,0,0,1,272.09,190a2.08,2.08,0,0,0-2.08,2.07v5.17A6.89,6.89,0,0,1,263.12,204.18Z" fill="#251ac7"></path><path d="M263.12,416.71A34.26,34.26,0,0,1,233.54,400L148.92,259.56a135.55,135.55,0,1,1,228.4,0L292.7,400A34.26,34.26,0,0,1,263.12,416.71Zm0-351.74h-1.8c-65.6.94-119.32,55.09-119.75,120.71a121,121,0,0,0,19.18,66.39l.1.17,84.67,140.52a20.53,20.53,0,0,0,35.18,0l84.67-140.52a1,1,0,0,1,.11-.17A121.56,121.56,0,0,0,263.13,65Z" fill="#251ac7"></path><path d="M263.83,263.11a78.6,78.6,0,1,1,78.6-78.59A78.67,78.67,0,0,1,263.83,263.11Zm0-143.19a64.6,64.6,0,1,0,64.6,64.6A64.67,64.67,0,0,0,263.83,119.92Z" fill="#251ac7"></path><circle cx="263.36" cy="221.35" r="7.79" fill="#251ac7"></circle></g></svg>