<svg xmlns="http://www.w3.org/2000/svg" viewBox="0 0 500 500" width="500" height="500" class="illustration"><g id="Layer_10" data-name="Layer 10"><path d="M64.54,67.42h0A33.53,33.53,0,0,1,98.07,101v62.47a0,0,0,0,1,0,0H31a0,0,0,0,1,0,0V101A33.53,33.53,0,0,1,64.54,67.42Z" fill="#3fe2fd"></path><path d="M206.67,347.29H465a0,0,0,0,1,0,0v52.55a36.26,36.26,0,0,1-36.26,36.26H206.67a0,0,0,0,1,0,0V347.29A0,0,0,0,1,206.67,347.29Z" fill="#3fe2fd"></path><path d="M228.11,362.65s-28.59,60.17-56.17,73.45H239.2Z" fill="#3fe2fd"></path><rect x="153.46" y="122.68" width="54.02" height="54.02" fill="#3fe2fd"></rect><rect x="261.98" y="122.68" width="79.91" height="52.37" fill="#3fe2fd"></rect></g><g id="Layer_3" data-name="Layer 3"><path d="M105.07,169H31.91a7,7,0,0,1-7-7V108.15A45.83,45.83,0,0,1,70.68,62.37h34.39a7,7,0,0,1,0,14H70.68a31.81,31.81,0,0,0-31.77,31.78V155h66.16a7,7,0,0,1,0,14Z" fill="#251ac7"></path><path d="M405.6,443.74H160.46a62.46,62.46,0,0,1-62.39-62.39V101.06A25.83,25.83,0,0,0,81,76.77L78.71,76a7,7,0,0,1,2.36-13.6H372.43a40.22,40.22,0,0,1,40.17,40.18V348.4a7,7,0,0,1-14,0V102.55a26.2,26.2,0,0,0-26.17-26.18h-269a39.8,39.8,0,0,1,8.6,24.69V381.35a48.45,48.45,0,0,0,48.39,48.39H405.6a7,7,0,0,1,0,14Z" fill="#251ac7"></path><path d="M416.12,443.74H160.46a7,7,0,0,1,0-14c20.31,0,33.16-15.25,38.2-45.33a144.11,144.11,0,0,0,1.77-23.79V348.4a7,7,0,0,1,7-7H464a7,7,0,0,1,7,7v40.43A55,55,0,0,1,416.12,443.74Zm-222.37-14H416.12A41,41,0,0,0,457,388.83V355.4H214.43v5.22a156.65,156.65,0,0,1-2,26.1C209.31,405.57,202.92,420.07,193.75,429.74Z" fill="#251ac7"></path><path d="M226.21,182.23H150.05a7,7,0,0,1-7-7V115.68a7,7,0,0,1,7-7h76.16a7,7,0,0,1,7,7v59.55A7,7,0,0,1,226.21,182.23Zm-69.16-14h62.16V122.68H157.05Z" fill="#251ac7"></path><path d="M363.86,182.23H261.41a7,7,0,0,1-7-7V115.68a7,7,0,0,1,7-7H363.86a7,7,0,0,1,7,7v59.55A7,7,0,0,1,363.86,182.23Zm-95.45-14h88.45V122.68H268.41Z" fill="#251ac7"></path><path d="M363.86,233.45H150.05a7,7,0,0,1,0-14H363.86a7,7,0,0,1,0,14Z" fill="#251ac7"></path><path d="M363.86,274.3H150.05a7,7,0,0,1,0-14H363.86a7,7,0,0,1,0,14Z" fill="#251ac7"></path><path d="M363.86,314.85H150.05a7,7,0,0,1,0-14H363.86a7,7,0,0,1,0,14Z" fill="#251ac7"></path></g></svg>